<svg id="Layer_1" data-name="Layer 1" xmlns="http://www.w3.org/2000/svg" xmlns:xlink="http://www.w3.org/1999/xlink" viewBox="0 0 4500 2500"><defs><style>.cls-1{fill:none;}.cls-2{fill:#aed3f0;}.cls-3{fill:#c3dcf3;}.cls-10,.cls-11,.cls-12,.cls-13,.cls-14,.cls-15,.cls-16,.cls-17,.cls-18,.cls-19,.cls-20,.cls-21,.cls-22,.cls-23,.cls-24,.cls-26,.cls-28,.cls-29,.cls-3,.cls-33,.cls-34,.cls-35,.cls-7,.cls-8,.cls-9{fill-rule:evenodd;}.cls-4{clip-path:url(#clip-path);}.cls-5,.cls-6{fill:#fff;}.cls-5{fill-opacity:0.45;}.cls-6{fill-opacity:0.55;}.cls-7{fill:#2a4474;}.cls-8{fill:#ec6198;}.cls-9{fill:url(#linear-gradient);}.cls-10{fill:url(#linear-gradient-2);}.cls-11{fill:url(#linear-gradient-3);}.cls-12{fill:url(#linear-gradient-4);}.cls-13{fill:url(#linear-gradient-5);}.cls-14{fill:url(#linear-gradient-6);}.cls-15{fill:#e73a7f;}.cls-16{fill:url(#linear-gradient-7);}.cls-17{fill:#a7446b;}.cls-18{fill:url(#linear-gradient-8);}.cls-19{fill:#ffc787;}.cls-20{fill:#ffab65;}.cls-21{fill:#365795;}.cls-22{fill-opacity:0.16;}.cls-23{fill:url(#linear-gradient-9);}.cls-24{fill:#95d7cd;}.cls-25{fill:#2b6d63;}.cls-26,.cls-31{fill:#3ea595;}.cls-27,.cls-29{fill:#d5efeb;}.cls-28{fill-opacity:0.24;}.cls-30{fill:#3b9789;}.cls-32{fill:#0a6053;}.cls-33{fill:#ba9a18;}.cls-34{fill:#ebd063;}.cls-35{fill:#134f7b;fill-opacity:0.17;}</style><clipPath id="clip-path"><rect class="cls-1" width="4500" height="2500"/></clipPath><linearGradient id="linear-gradient" x1="1291.88" y1="1791.78" x2="1293.06" y2="1791.78" gradientTransform="matrix(-143.29, -581.69, -581.69, 143.29, 1228617.57, 495154.62)" gradientUnits="userSpaceOnUse"><stop offset="0" stop-opacity="0"/><stop offset="1"/></linearGradient><linearGradient id="linear-gradient-2" x1="1290.13" y1="1790.98" x2="1291.31" y2="1790.98" gradientTransform="matrix(519.01, -1314.43, -1314.43, -519.01, 1686356.77, 2627177.99)" gradientUnits="userSpaceOnUse"><stop offset="0" stop-color="#fff" stop-opacity="0"/><stop offset="1" stop-color="#fff"/></linearGradient><linearGradient id="linear-gradient-3" x1="1290.82" y1="1791.96" x2="1292" y2="1791.96" gradientTransform="matrix(124.02, -687.31, -687.31, -124.02, 1072770.86, 1110265.64)" xlink:href="#linear-gradient-2"/><linearGradient id="linear-gradient-4" x1="1289.97" y1="1791.53" x2="1291.16" y2="1791.53" gradientTransform="matrix(543.53, -735.28, -735.28, -543.53, 617719.77, 1922885.41)" xlink:href="#linear-gradient-2"/><linearGradient id="linear-gradient-5" x1="1289.06" y1="1792.95" x2="1290.24" y2="1791.91" gradientTransform="matrix(192.23, -891.78, -396.72, -618.87, 464012.18, 2259774.11)" xlink:href="#linear-gradient-2"/><linearGradient id="linear-gradient-6" x1="1290.85" y1="1789.62" x2="1292.03" y2="1789.62" gradientTransform="matrix(-1459.4, -283.71, -283.71, 1459.4, 2393249.94, -2243942.64)" xlink:href="#linear-gradient"/><linearGradient id="linear-gradient-7" x1="1288.69" y1="1791.61" x2="1289.87" y2="1791.61" gradientTransform="matrix(984.12, 0, 0, -355.44, -1267481.66, 639079.51)" xlink:href="#linear-gradient"/><linearGradient id="linear-gradient-8" x1="1291.76" y1="1791.82" x2="1292.95" y2="1791.82" gradientTransform="matrix(-68.78, -481.01, -481.01, 68.78, 952527.7, 499544.9)" xlink:href="#linear-gradient"/><linearGradient id="linear-gradient-9" x1="1290.18" y1="1790.43" x2="1291.37" y2="1790.43" gradientTransform="matrix(57.14, -2613.1, -2613.11, -57.14, 4607970.65, 3476483.15)" gradientUnits="userSpaceOnUse"><stop offset="0" stop-opacity="0"/><stop offset="0.49" stop-opacity="0.26"/><stop offset="1"/></linearGradient></defs><g id="c63"><rect class="cls-2" width="4500" height="2500"/><path class="cls-3" d="M1582.77,2500c49.84-74,105.52-144,170.94-203.19,220.07-199,565.88-316.11,848.28-381.62,484.46-112.38,1399,285,1898,37V2500ZM4500,489c-139.94-133.35-326.88-217.07-562.61-278.42-143.35-37.31-282.81-64-431.3-47.36-211.33,23.73-419.42,126.66-612.26,210.46-394.36,171.37-884,341.16-1319.77,275.2C1348.54,614.73,885.74,320,643.87,0H4500Z"/><rect class="cls-1" width="4500" height="2500"/><g class="cls-4"><rect class="cls-5" x="1107.57" y="-6.68" width="17.33" height="2552.27"/><rect class="cls-5" x="946.74" y="-6.68" width="17.33" height="2552.27"/><rect class="cls-5" x="785.91" y="-6.68" width="17.33" height="2552.27"/><rect class="cls-5" x="625.07" y="-6.68" width="17.33" height="2552.27"/><rect class="cls-5" x="464.24" y="-6.68" width="17.33" height="2552.27"/><rect class="cls-5" x="303.41" y="-6.68" width="17.33" height="2552.27"/><rect class="cls-5" x="142.57" y="-6.68" width="17.33" height="2552.27"/><rect class="cls-6" x="-42.81" y="162.34" width="1344.03" height="14.17"/><rect class="cls-6" x="-42.81" y="328.96" width="1344.03" height="14.17"/><rect class="cls-6" x="-42.81" y="495.59" width="1344.03" height="14.17"/><rect class="cls-6" x="-42.81" y="662.21" width="1344.03" height="14.17"/><rect class="cls-6" x="-42.81" y="828.83" width="1344.03" height="14.17"/><rect class="cls-6" x="-42.81" y="995.45" width="1344.03" height="14.17"/><rect class="cls-6" x="-42.81" y="1162.07" width="1344.03" height="14.17"/><rect class="cls-6" x="-42.81" y="1328.69" width="1344.03" height="14.17"/><rect class="cls-6" x="-42.81" y="1495.31" width="1344.03" height="14.17"/><rect class="cls-6" x="-42.81" y="1661.93" width="1344.03" height="14.17"/><rect class="cls-6" x="-42.81" y="1828.55" width="1344.03" height="14.17"/><rect class="cls-6" x="-42.81" y="1995.17" width="1344.03" height="14.17"/><rect class="cls-6" x="-42.81" y="2161.8" width="1344.03" height="14.17"/><rect class="cls-6" x="-42.81" y="2328.42" width="1344.03" height="14.17"/><rect class="cls-5" x="2181.6" y="-6.68" width="17.33" height="2552.27"/><rect class="cls-5" x="2020.77" y="-6.68" width="17.33" height="2552.27"/><rect class="cls-5" x="1859.94" y="-6.68" width="17.33" height="2552.27"/><rect class="cls-5" x="1699.1" y="-6.68" width="17.33" height="2552.27"/><rect class="cls-5" x="1538.27" y="-6.68" width="17.33" height="2552.27"/><rect class="cls-5" x="1377.43" y="-6.68" width="17.33" height="2552.27"/><rect class="cls-5" x="1216.6" y="-6.68" width="17.33" height="2552.27"/><rect class="cls-6" x="1031.22" y="162.34" width="1344.03" height="14.17"/><rect class="cls-6" x="1031.22" y="328.96" width="1344.03" height="14.17"/><rect class="cls-6" x="1031.22" y="495.59" width="1344.03" height="14.17"/><rect class="cls-6" x="1031.22" y="662.21" width="1344.03" height="14.17"/><rect class="cls-6" x="1031.22" y="828.83" width="1344.03" height="14.17"/><rect class="cls-6" x="1031.22" y="995.45" width="1344.03" height="14.17"/><rect class="cls-6" x="1031.22" y="1162.07" width="1344.03" height="14.17"/><rect class="cls-6" x="1031.22" y="1328.69" width="1344.03" height="14.17"/><rect class="cls-6" x="1031.22" y="1495.31" width="1344.03" height="14.17"/><rect class="cls-6" x="1031.22" y="1661.93" width="1344.03" height="14.17"/><rect class="cls-6" x="1031.22" y="1828.55" width="1344.03" height="14.17"/><rect class="cls-6" x="1031.22" y="1995.17" width="1344.03" height="14.17"/><rect class="cls-6" x="1031.22" y="2161.8" width="1344.03" height="14.17"/><rect class="cls-6" x="1031.22" y="2328.42" width="1344.03" height="14.17"/><path class="cls-7" d="M1940.19-39.67c3.27,88.48,9,184.54,35.39,269.47,16.5,53,48.48,102.94,61.32,156.23.89,3.7-7.5-1.69-11.29-1.38-6.28.52-15.46,10.12-22.24,6.5-14.42-7.69-19.9-36.32-31.63-48.12-1.94-1.94-1.36,5.35-1.5,8.08-.38,8.65-.16,17.35-.16,26,0,2,1.1,7.57-2,3-11.81-17.24-17.46-37-24.46-56.4-2.51-7-6.06-13.42-9.46-20-1.36-2.66-4.29-10.84-4.34-7.84-.89,41.28,33.15,86-36.39,73.13-5.4-1-17.88,2.24-22.42-.72-17-11.14-33.76-84.45-37.55-104-2.07-10.76-4.76-21.34-6.14-32.2-.64-4.9,4.46-14.86-.47-14.82-.08,0,.06,17.63,0,18.58-.5,5.77-2.46,54.91-9.44,46.39-40.64-49.7-41.17-137.8-41.2-198.75,0-31.22,7.53-60.86,10.88-91.68.44-4.16-.28,10.46-4.21,11.87-3,1.08-12.15-22.08-19.37-21.72-3.38.16-2.1,22.89-2.1,26a605.5,605.5,0,0,1-6,86.72c-10.52,73.23-42.12,151.37-67.38,220.59-5.9,16.13-13.7,64.89-31,73.76-9.27,4.73-35.61-24.11-43-29.18-35.36-24.37-84-43.38-125.68-55-28.25-7.89-54.87-19.87-82.74-28.5-10.54-3.26-32.79-3-40-12.81-14.5-19.83,16.71-95.41,22.11-116.93,27.28-109,57.67-240,137.47-325,31.52-33.52,81.1-5.25,113.34-36.15"/><path class="cls-7" d="M734.71,2211.06c-2.76,33.56-22.91,68.15-31.87,100.74-22,80-29.42,165.51-29.47,248.26,0,13.1-9.27,33.09-5,45.64.6,1.77,2.38,3,3.93,4,29.44,19.18,235.78,46.55,274.08,51.3,242.29,30.14,490.28,17.51,733.13,3.55,27.25-1.58,193.06,2.58,213.4-20.24,21-23.48,23-156.68,28.5-188.3,15.88-90.88,27.67-184,47.84-273.93,14.39-64.16,40.71-128.73,41.37-195.2"/><path class="cls-8" d="M740.11,149.32C673.62,250.28,541.32,295,487.94,410.45c-18.15,39.25-51.5,241.78-58.52,323.79C426,774,414.58,992.31,423.77,1010.61c11,21.88,69.18,29.7,89.24,34.63,77.37,19,211.74,25.25,249,108.56,27.84,62.21,38.41,133.5,65.61,197.07,68.9,161,141.18,171.18,79.83,354.82C861.75,1842.57,767,1942.33,721.32,2094.24c-8.55,28.54-46.27,108.41-26.29,139,10.6,16.24,41.59,24.73,57.26,37,82.24,64.43,153.77,127.42,254.79,160.9,192.46,63.82,406.66,62,609.08,49.78,234.32-14.11,411.94,3.58,558.35-196.69,168.83-230.91,216.26-564.73,73-786.84-27.53-42.68-97.51-132.52-125.35-172.33-27.42-39.16-26.53-120.86-46.24-163.64-10.6-23-32.73-39.5-43.39-63.24-62.37-138.9,33.18-248.7,4.87-394.39-18.92-97.42-116.85-153.61-175.46-225.91-32.38-40-49.09-91.34-86.09-127.85-93.5-92.28-304.66-165.43-429.9-201.58"/><path class="cls-9" d="M671.67,223.92c75,31.42,146.43,78.76,222,106.54C1066.75,394,1202,379,1370,309.77c41-16.92,89.2-46.13,134.55-46.23,46.36-.09,92.05,25.36,138.73,30.61,21.42,2.41,43.25,3.49,65.25,3.81-106-67.54-262-120.47-362.66-149.5l-605.82.86C721.41,177.69,697.53,201.61,671.67,223.92Z"/><path class="cls-10" d="M2104.93,1328c-70.61,26.7-170.1,83.36-242.8,109.25-128.25,45.68-291.1,18.15-361.36,161.66-40,81.66,43.14,132.28,107.43,161.51,45.34,20.61,96.91,30.28,144,46.44,97.73,33.5,330.75,141.19,432.6,115.61,40.1-10.07,84-49.17,98.77-87.56,25.86-67.19,4.1-241.44-28-308.1-26.22-54.38-45.61-73-83.93-127.86C2159.52,1381.63,2127,1329.88,2104.93,1328Z"/><path class="cls-11" d="M1095.14,541.6c-18.38,21.46-48.15,57.95-45.3,88.39,7.51,80.33,344.64,132.32,407.17,99.82,107.42-55.81-145.89-187-185.71-198.48-46-13.31-100.51-15.48-147.71-7"/><path class="cls-12" d="M1502.79,284.58c-151.33,62.17-175.22,119.49-53.92,231.45,39.25,36.23,73.54,79.64,125.86,98.93,84.89,31.28,181,40.29,269.51,53.95,42.33,6.53,84.22,30.43,128.48,18.56,67.41-18.09-59.75-131.52-75.45-148.2C1788,423.33,1724.87,271.83,1543.81,271.82"/><path class="cls-13" d="M539.33,363.31c-34.18,23.23-40.65,59.16-56.14,95.1-44.62,103.54-47.63,181.11-26.43,293,.67,3.56.72,7.22,1.34,10.79.49,2.82,11.82,97.91,32.83,85.57,25.79-15.14,38.75-131.89,73.91-163.11,94-83.46,169.28-64.22,170.59-87.93,2.38-43.47-80.79-315.79-168.73-243.79"/><path class="cls-14" d="M918.84,831.68s7.94,101.52,13.5,62.45c6.26-43.87,12.12-92.88,12.9-137.07a72.39,72.39,0,0,1,0-8.07c1.72-14,3.71-28.23,4-42.36,0-1,.61-18.49,1.52-18.2C961,691.7,953,802,961.37,847.84c27.09,148.87,34,246.76,221.21,252,188.91,5.28,249-88.71,402.59-141.24,47.9-16.38,95.44,5.38,144.36-3.55,36.55-6.67,72.78-18.41,108.64-27.83A154.69,154.69,0,0,0,1873,912.64c5-2.85,15.33-12.68,15.63-7,.64,12.49-11.34,21.64-20.86,26.91-25.65,14.17-56.51,15.7-84,23.48-32.93,9.32-62.85,34.5-91,53.14-9.9,6.56-70.2,26.24-71.67,37-2.79,20.14,19.12,32.93,32.41,44,1.88,1.59,14.69,10.23,11.9,12.52-33.71,27.47-100.81,19.49-141,19.49-4,0-62.73-.69-62.76.22-1.41,26,11.18,40.95-5.7,68.86-13.17,21.8-29.22,49.53-47.46,67.15-15.66,15.16-125.18,92.08-99.7,118.8,13,13.65,43.92,5.83,60.83,10.61,29.38,8.32,50.55,42.64,86.41,36.88,50.92-8.18,134-120.49,175.83-124.51,5.73-.55,9.3,16.2,10.1,19.83,5.89,25.89,24.43-28.08,123.55-81.41,42.64-22.93-57.2,122.26-11.29,103.53,26.9-11,65.25.13,93.94-5.72,47.85-9.77,89-29.2,134.74-42.26,23.57-6.74,94.3-45.06,117.13-29.62,1.88,8.93,4,17.63,6.48,25.81-11.54,60.53-147.58,95.54-190.14,111.18-164.11,60.32-346.33,62.87-512.83,118.79-49.42,16.6-147.38,44.64-167,100.47-52.41,148.63,29.19,311.69,128.62,420.07,17.54,19.13,53.23,31.45,75.34,45.64,76.46,49.05,145.36,105.88,223.28,153.15,41.51,25.21,248.33,118.65,245.81,167.65-.61,11.49-45.74,10.24-51.36,9.93-61.51-3.3-131.11-9-191.07-23.45-283.35-68.13-331.39-209-527.72-385.43-40.24-36.16-76.13-70.26-122.64-98.86-57.14-35.1-118.41-39-168-75.44,22.64-40.86,43.44-82.53,58.77-128.36,61.35-183.64-10.93-193.83-79.83-354.82-9.93-23.22-17.65-47.47-24.79-71.95q2.16-9.87,4.76-19.68c22.41-84,68.71-162.27,90.24-246.17C913.08,953.69,913.83,892.88,918.84,831.68Z"/><path class="cls-15" d="M909.85,683.26c-5.12-2.11-5-15.4-6.17-20.28-6.12-26-13.92-51.41-20.4-77.37-17.73-71-53.51-136.43-88.27-199.95C782.28,362.4,752.2,326,721.79,325.51c-8.77-.15.33,24.48,1.39,27.21,10.62,27.9,20.75,58,34.86,84.31,15,27.92,31.33,54,44,83.19,18.18,41.86,42.47,80,63.31,120.49"/><path class="cls-16" d="M747.33,2061.6c13,53.52,167.25,152,210.91,183.13,235.46,167.76,404.62,193.16,684.15,220.09,70.29,6.77,199.51,31.84,267.75,8.07"/><path class="cls-17" d="M1521,1306.4c-15.77.65-28.17,8.48-43.64,10.62-10.29,1.43-20.53,2-30.77,3.78-10.65,1.85-23.21,4.7-33.12,9.27-.86.4-10.63,4.93-10,6.83.88,2.49,7.61,3,9.54,3.16a259.3,259.3,0,0,0,35.89,1.48c23.14-1,42.37-6.87,64.39-12.82,12.1-3.27,24.63-4,36.84-6.59s30.49-4.29,39-14.94"/><path class="cls-17" d="M1544.55,1245.65c-12.82,0-25.63-2.8-38.74-2.8-14.25,0-28.59-.55-41.57,6.18-1.21.62-11.89,5.65-9.6,8.38,5.76,6.83,26.26,6.55,34.4,8.18,14.91,3,30,2.83,45.21,2.13,21.75-1,37.75-.93,57.86-9.08"/><path class="cls-18" d="M1575.92,1264.49c-15.82,6.39-92.39,62.44-89.53,75.83,5.28,24.75,40.55,24.43,58.35,32.16,53,23,113.39,55.4,173.41,51.69,29.65-1.83,57.58-16.59,86.36-22.35,24-4.8,48.67-3.35,72.65-7.51,59-10.23,118.54-41,170.07-70.48,61-34.93,52-110.7-28.46-81.65"/><path class="cls-19" d="M431.52,989.72s5.75,317.24,12.2,398.51c11.15,140.66,13.62,372.12,64.86,502.6,18.68,47.56,143.78,119.35,185.93,147,189.33,123.86,403.59,193,600.85,299.62,205.33,110.95,471.47,213,707.78,186.79,39.33-4.35,51.86-45.49,78-62.51,35.42-23,81.74-49.5,103.46-88,12.4-21.94,53.33-167.79,32.32-176.95-12.31-5.36-41.31,41.92-54.09,48.55-11.32,5.86-.34-34.42-13-36-46.71-6-120.1.28-167.69,8.63-70.42,12.36-154.16,71.1-228.32,54.05-41.92-9.63-79.94-35-119.29-52-196.94-85.17-351.67-222.39-522.71-347.06-58.5-42.63-124.72-75.6-183.49-117.58-99.78-71.27-63.84-142.54-51.53-265.66,13.7-137,48.1-499,33.38-506.35-68-34-160.69-40.16-260.89-31.8C578.15,957.46,431.52,989.72,431.52,989.72Z"/><path class="cls-20" d="M2196,2343.78c-4.56,14.16-8.69,25.07-11.43,29.93-21.72,38.47-68,64.93-103.46,88-26.15,17-38.68,58.16-78,62.51-236.31,26.21-502.45-75.84-707.78-186.79-197.26-106.6-411.52-175.76-600.85-299.62-42.15-27.6-167.25-99.39-185.93-147-51.24-130.48-53.71-361.94-64.86-502.6-6.45-81.27-12.2-398.51-12.2-398.51s146.63-32.26,217.8-38.2c75.07-6.26,145.91-4.35,205.32,11.28C768.78,968,603.14,1034,581.11,1089.22c-19,47.7-12.67,106.22-16.46,156.27-7.86,104.11-29.28,448.23,19,539.63,19.89,37.65,65,20.93,74.19,36,24.65,40.86-7.23,56.51,41.28,98.58,96.38,83.59,221.32,152.18,334.69,210,37.24,19,78.64,30.64,114.56,52.3,104.37,63,219.32,118.89,331.11,167.5,26.76,11.66,306,101.44,331,97.63,23.27-3.55,44.3-19,66.72-22.18,47.84-6.85,129.64,5.17,171.17-22,13.48-8.8,18.6-26.27,31.71-34.73,19.9-12.86,46.8-19.3,64.42-35.79,25.07-23.42,52.3-42.47,72.5-69.31-1.38,7-2.93,14.13-4.62,21.32-6.56,11-12.87,20.15-18.1,25.68-13.44,14.18-33.78,20.68-47.23,34.09-4.21,4.19-11.13,8.35-10.88,15.24.11,3.27,2.72,7.6,6,8.57C2158.35,2373.09,2177.89,2359.83,2196,2343.78Z"/><path class="cls-20" d="M2108.55,2260.33c-4.9.11-9.63,4.22-13.76,6.44-9.77,5.22-20.17,10.25-30.21,14.85-11.74,5.36-27.51,6.47-40.16,9.36-2.71.64-23.3,8.11-16.07,14.35,6.11,5.3,20.61-2.41,27.25-3.3,20.23-2.75,40.38-11.58,57.86-22,11.05-6.6,19.24-16.24,31.72-20.37"/><path class="cls-19" d="M2091.86,1271.44c11.54,17,19,37.36,29.88,54.91,2.72,4.35,16.25,20.3,16.25,20.3s-1.25-33.35-1.25-36.45c0-19.84,3.46-39.45,5.26-59.16,2.82-30.6,10.63-60.59,7.94-91.83-4.26-49.49-34.17-95.83-71.75-126.82-27.62-22.73-69.23-35.94-102.55-46.7-93.31-30.12-180.06-45.38-219.35-25.74-23,11.51-77.43,43.88-129.89,75.08-8.66,5.14-20.76,12.6-24.1,22.77-4.85,14.64,29.6,30.71,40,34.38,3.57,1.26,23.22-.23,20.61,5.32-1.27,2.68-36.24,24-40.48,27.19-35,26-78.31,48.62-106,82.57-6.53,8-24.87,25-19.23,36.82,6.23,13.15,25.79,11.1,37.52,14.86,1,.32-15.47,13.17-17,14.16-8.77,5.85-31.85,26.8-31.19,38.89.53,9.59,47.32,20.2,57,18.52,3.57-.62,17.71-4.91,19.79-2,6.69,9.18,2.16,21.92,13.22,30,39.35,28.82,88.17-18.5,128.07-15.61,4.67.34,1,17.76,2.21,21.23,2.85,8.37,8.66,9,16.22,9.9,33,4,71.47-5,103.1-12.07,45.63-10.26,102.83-17.66,145.19-38.49C1996.73,1311,2068.17,1288.81,2091.86,1271.44Z"/><path class="cls-20" d="M1705.7,1343.42c11.13-5.53,21.59-12.48,33-17.27,24.85-10.47,50.44-19.64,75.35-30.11,18.79-7.9,38.63-14.82,56.89-23.57,9-4.33,19.54-9.81,29.8-10.32,3.71-.19-8.41,8.53-10.1,9.23-8.33,3.45-16.1,9.17-24.82,11.61-9.55,2.68-16.82,9.9-25.71,14-20.53,9.53-40.34,18.25-60.46,29.29-2.43,1.35-26.23,17.8-22.72,21.57,17.35,18.63,63.1-1.15,82-4.83,7.75-1.51,15.08-3,22.77-5,71.39-18.34,131.52-71.09,204.8-78.91,12.48-1.33,29.22-12.56,42-8.15,6.81,2.34,12.46,18.08,15.64,23.32,4.34,7.18,8.8,14.9,13.12,22.89-.28,4.32-.45,8.65-.45,13,0,3.1,1.25,36.45,1.25,36.45s-13.53-16-16.25-20.3c-10.9-17.55-18.34-37.89-29.88-54.91-23.69,17.37-95.13,39.54-120.54,52-42.36,20.83-99.56,28.23-145.19,38.49-31.63,7.12-70.09,16.12-103.1,12.07-7.56-.93-13.37-1.53-16.22-9.9C1705.73,1361,1708.64,1346.4,1705.7,1343.42Zm-178.14-14.26c5.2-3.42,10.32-7.07,15.57-10.05,15.11-8.56,31.63-14.2,47.6-20.84,57.34-23.84,118.13-39.69,174.91-65.07,22.19-9.92,46.27-22.31,69.68-28.62,2.4-.65,21.22-7.93,23.44-6,3.62,3.13-13.18,12.93-14.39,13.59-21.56,11.72-44.64,20-66.86,30.7-68.18,32.73-140.32,66.28-213.29,87-.28-.46-.58-.92-.91-1.37-2.08-2.88-16.22,1.41-19.79,2C1540.7,1331,1534.7,1330.44,1527.56,1329.16Zm-26.49-79.88c15.45-3.11,31.08-9.07,41.93-11.84,17.4-4.44,36.94-8.91,53.37-16.28,39.41-17.65,72.5-48.93,111.74-66.28,8.75-3.86,18-5,26.93-8.11,21.66-7.64,44.1-14,66.79-17.38,2.16-.33,18.6-5.36,20.65-3.57,1.69,1.48-12,6.48-12.87,6.65-7.94,1.69-14.61,6.12-22.14,9-23.54,9.16-47.09,19.22-71.06,27.29-33.59,11.32-62.31,31.12-93.3,47.49-25.41,13.43-53,22.76-78.2,36.49q-5.36,2.94-10.8,6C1524.21,1255.82,1509.27,1256.57,1501.07,1249.28Zm141.1-157.16c3.46-1,6.92-2.1,10.35-3.17,15.8-4.93,31.93-8,47.65-13.54,17.63-6.16,33.21-18,49.86-26.21,13.48-6.68,27.26-13,40.63-19.83.71-.37,12.56-4.93,12.2-2.8-.94,5.82-9.1,10.84-13.39,14.07-15.14,11.41-33.27,19.29-49.7,28.69-31.85,18.21-66.91,31.2-101.45,45.09,11.07-7.06,23.83-15.32,24.6-16.92,2.61-5.55-17-4.06-20.61-5.32Z"/><path class="cls-19" d="M1415.65,74.06c19.54,2,55.24,27.67,75,36.1,46.4,19.78,103.38,30.35,153.55,26,51.3-4.44,64.81-66.49,76.87-106.82,3.76-12.63,8.05-25.78,10.43-38.71.56-3.11,4.79-8.74,1.39-10.84-5.93-3.67-23-2.39-29.58-3.23-13.81-1.74-28.17-6.49-41.82-9.33-75.18-15.68-149.45-24-226.18-24"/><path class="cls-21" d="M791,3.17C787,39,740.55,72.32,718,96.53c-5.2,5.58-26.43,25.3-23.66,34.91,3.79,13.31,26,23,35.34,32.14,43.86,42.94,102.05,72.26,159.61,90.93,141.84,46,291.88,37.45,432.78-2.72,44.16-12.59,97.65-17.23,136.36-43.71.11-.07,16.25-91.36,17.6-98.1,6.84-33.89,13.12-67.9,22.75-101.05,1.19-4.07,11.7-30.64,8.71-34.33-.94-1.17-103.07-25.35-106.17-26.13a563.52,563.52,0,0,0-82.24-14.64c-57.83-5.69-120.84-7.4-178.76-1.89-90.93,8.65-181.3,17.21-272.4,24.17-33.34,2.55-70.42,15-103.6,11.86"/><path class="cls-7" d="M1190.93-71.09c-1.91,4.12-3.82,8.21-5.67,12.29C1161.93-7.75,1142.34,45,1119,96.08c-4,8.65-28.94,49.93-13,58.3,16.36,8.57,46.55.49,64.81.52,128.65.22,126-28.21,173-148.39,8.55-21.93,17.9-43.42,27.47-64.85q11.37,2.28,22.67,5c-27.51,72-81.3,152.64-84.29,209.82-1.69,31.95,54.07,12.65,66.27-2.6,30.25-37.88,40-89.16,57.7-133.13C1441.3,1.48,1449-18.43,1457-38.19,1482.4-32,1507-26,1507.49-25.4c3,3.69-7.52,30.26-8.71,34.33C1489.15,42.08,1482.87,76.09,1476,110c-1.35,6.74-17.49,98-17.6,98.1-38.71,26.48-92.2,31.12-136.36,43.71-140.9,40.17-290.94,48.71-432.78,2.72-57.56-18.67-115.75-48-159.61-90.93-9.38-9.16-31.55-18.83-35.34-32.14-2.77-9.61,18.46-29.33,23.66-34.91C740.55,72.32,787,39,791,3.17L764.32-32c16.41,1.53,33.73-.72,51.08-3.7,1.64,13.58,3.24,28,10.46,39.86,8.42,13.83,38.38-32.75,47.29-44.7.34-.43,1.66-2.27,3-4l.28,0,3.9-.31c1.77,9.2-1.36,38.23-.31,43.11,3.33,15.32,14.7,33.21,25.85,11.54,3-5.88,6.45-11.5,9.44-17.41,7-13.88,13.83-27.85,20.78-41.78,9.52-.8,19-1.61,28.53-2.44-9,22.37-17.38,42.63-19.76,51.74C931.4,52,967.82,39.65,968.68,50.53c1.63,20.67-28.64,68.88,6.67,67.88,72.08-2,114.53-123.15,141.89-171.74q3.83-6.72,7.86-13.28l15.22-1.45c2.88-.27,5.76-.53,8.64-.76-10,21.57-21.84,42.34-30.14,58.9-11.54,23-22.69,46-32.76,69.72-5.54,13.06-10.46,26.37-15.86,39.49-4.65,11.36-12.7,22.83-14.94,35-4.81,26.29,36.39-28.86,41.26-37.59,30.16-54.14,53.43-111.55,80.36-167.3Q1183.88-70.9,1190.93-71.09Z"/><path class="cls-22" d="M3795.61,832.76,2537.4,750.86l-72,81.9v1201.6H3795.61Z"/><path class="cls-23" d="M3795.61,853.58,2537.4,750.86l-72,102.72V2360.69H3795.61Z"/><path class="cls-24" d="M2525.44,1917.78V758.39H3830.52V1921.73H2720.8c-.35-2.89-.3-6.79-2.28-9-1-1.09-5.26.53-7.29-1.19-2.74-2.3-4.05-8.84-7.27-10-.75-.27-2,7.28-3.64,7.29-2.2,0-4.91-12.18-6.52-11-3.08,2.25-3.54,10.21-3.91,13.56-.08.75.29,3.71-.73,4.05-6,2.06-20.88.83-26.89-1.35-3.35-1.22-6.54-4.37-10-4.91-5.71-.89-5.66,6.79-11.05,5.69-3.4-.71-5-5.67-7.72-7.49-3.16-2.09-6.35-.06-8.39-.88-1.85-.74-3-5.34-3.81-6.89-1-1.86-2.54-15.55-5.92-14.71-6,1.49-8.66,14.2-10.27,19-.48,1.42-1.85,7-3.7,7.11-1.31.06-3-4.88-3.22-5.55-1.12-3.89-3.43-16.43-8.25-17.88-1.1-.33-2.39,2.42-2.66,2.94-1.93,3.57-3,11.32-6.19,13.74-1.8,1.35-4.26-8.22-6.14-6.81-2.87,2.14-1,8.38-3.48,10.29,0,0-.67-2.15-.7-2.24-.54-1.6-1.26-4.66-3-5.33-.35-.14-3,12.57-3.54,13.28-.26.34-4.53-6.52-4.69-6.78-1.9-3.34-8.36-17.46-12.7-17.41-.92,0-1.75,4.21-1.88,4.66-1.45,4.67-2.66,9.39-4.08,14.07-.16.47-1,3.93-1.47,4.15-.94.45-.75-2-1.15-2.94-.94-2.39-2.74-9.74-4.94-10.93-.72-.4-.64,1.53-.91,2.32-.7,2-1.47,3.93-2.28,5.91C2528.79,1909.87,2526.94,1913.77,2525.44,1917.78Z"/><rect class="cls-25" x="2525.44" y="758.39" width="1305.07" height="106.9"/><path class="cls-26" d="M2554.37,903.31c-1.18,107.66-1.07,215.21-4,322.83-2.63,97.63-9.78,194.41-9.41,292.14.27,70.45,4.53,141.88,10.83,212,2,22.57,3.65,44.93,4.83,67.53.4,7.6,1.5,15.22,2.17,22.79,0,.11.29,9.55.72,9.43,1.53-.41-1-15.72-1.12-16.52a435.84,435.84,0,0,1-5.66-55.75c-2.12-49-5.28-97.77-3.91-146.86,1.87-68.38,8.52-136.61,10.85-205,2.5-73.53,2.36-147.13,4.77-220.67,3.49-105.46,13.44-211.95,1-317.29"/><path class="cls-26" d="M2587.21,1324c-2.79,22.59-.67,46.38-1.29,69.13q-2.09,78-2.14,155.88c0,44.85,2.92,89.62,5.63,134.34,2.38,39.26,5.71,79.2,5.81,118.53a260.19,260.19,0,0,0,3.28,39.54c.69,4.65.88,8.41,3.11,12.42.8,1.46.1,6.47.83,5,5.33-11.24-.73-32.8-1.34-44.72-1.56-30.06-2.52-60.38-1.56-90.51,1.31-41.67,5.76-83.32,7.75-125,4.13-86.49-4.64-173.51-18.28-258.63"/><path class="cls-26" d="M2628.87,1858.27c4.8-25.69-.56-53.9,1.34-80.15.75-10.09,1.66-20.13,2.82-30.18.37-3.12,1-6.22,1.36-9.35.24-2.15-.08-8.45.78-6.45,3.46,8.28,1.72,20.55,3,29.46,3.43,24.28.48,62,13.78,84.17,1.9,3.13,1.23-7.24,1.28-10.9.11-9.34,0-18.68,0-28,0-29.44-1.9-59-.08-88.36,5.28-85.09,17-170.4,17.26-255.74.27-98.27.86-195.07-7.05-293.1-2.54-31.57-4.8-63.24-7.1-94.83-.73-10-.19-20.14-.89-30.16-.21-3.28-.34-6.79-.69-10.06-.24-2.15-1.58-8.45-.7-6.46,3.16,7.23,1.39,18.22,1.39,25.86,0,16.8-.26,32.54,4,48.89,24.67,95.86,24.37,196.9,19.06,295.21-1.95,36.6,3.22,72.13,4.77,108.47,1.83,43-3.43,86.44-.1,129.32,4.85,62.52-.35,125.42-6.7,187.5-2.28,22.19,2.89,54.55-6.87,75.51-2.76,5.89-11.69-12.93-14.93-14-6.52-2-7,18.82-13.59,5.79-.73-1.44-1.42-2.89-2.09-4.34-.94-2-.62-4.9-.67-7"/><path class="cls-26" d="M2645,938.18c-.94-8.29,3.84,12.29,3.92,15.26.21,11.92,0,24.09,1.23,35.94,0,.56.88,11.68,2.65,11.37,5-.9,6.89-22.74,7.35-26.51,3.14-26,4.56-56.32-11.74-77.14"/><rect class="cls-27" x="2721.86" y="758.39" width="1108.65" height="1163.34"/><path class="cls-28" d="M3830.52,758.39H2721.86c-1.36,381.2,27.15,759.22,123.21,1130h985.45Z"/><path class="cls-29" d="M3830.52,860.79H2721.86c1.76,351,69.76,682.93,248.22,983.14H4078.72C3905.68,1549.3,3815.61,1224.28,3830.52,860.79Z"/><rect class="cls-30" x="2721.86" y="758.38" width="1108.65" height="105.8"/><path class="cls-26" d="M3277.06,969.25a21.92,21.92,0,0,0-21.88-22H3056.31a22,22,0,0,0,0,43.9h198.87A21.92,21.92,0,0,0,3277.06,969.25Z"/><path class="cls-26" d="M3572,969.25a21.92,21.92,0,0,0-21.88-22H3351.23a22,22,0,0,0,0,43.9H3550.1A21.92,21.92,0,0,0,3572,969.25Z"/><ellipse class="cls-31" cx="2907.15" cy="975.04" rx="65.78" ry="23.74"/><path class="cls-32" d="M2982.83,1292.35l-1.07-67c30.12-1.78,51.65-4.28,64.55-7.09,19.29-4.85,36.4-13.76,47-27.12,8.49-9,14.77-21.21,18.79-36.19,2-9.11,4.07-15.63,4-20.17l81.9-1.31,8,501-101.26,1.62-5.49-345.61Z"/><path class="cls-32" d="M3445.07,1496.61c4.65,21.33,11.38,37.65,22.35,49.15,13.13,11.47,28.26,17.06,49.83,16.72,23.72-.38,42.94-9.33,55.6-26.84,12.67-17.27,18.8-39,18.39-64.93q-.61-38.25-20.44-64.53c-11.06-17.34-30.56-25.89-56.44-25.48-10.78.18-21.54,1.86-30.07,5-15,5.65-27.78,16.23-34,31.25l-88.38-2.69L3392,1137.07l275.78-4.41,1.32,83.42-204.66,3.28-15.51,109.86c14.94-10.19,25.62-16.84,34.19-20.22,15-5.65,32.17-8.51,51.58-8.82,43.08-.69,77.76,12.81,110.55,40.16,30.58,27.18,46.32,67.59,47.16,120.75q1.11,69.38-43.26,124.8c-27.46,36.75-72.41,55.63-130.58,56.56-47.39.76-86.36-11.37-119.11-36.36-30.55-25-48.38-61-51.28-107.93Z"/><path class="cls-33" d="M3951.42,260.28a22.23,22.23,0,0,0-22.2-22.25H3147.34a22.19,22.19,0,0,0-22.17,22.25V647.52a22.17,22.17,0,0,0,38.66,14.91l88-97.84a22.16,22.16,0,0,1,16.49-7.35h660.94a22.23,22.23,0,0,0,22.2-22.26Z"/><path class="cls-34" d="M4200.4,260.28A22.21,22.21,0,0,0,4178.2,238h-1011a22.18,22.18,0,0,0-22.17,22.25V647.52a22.17,22.17,0,0,0,38.66,14.91c31.09-34.6,72.14-80.24,88-97.84a22.12,22.12,0,0,1,16.48-7.35h890A22.21,22.21,0,0,0,4200.4,535Z"/><path class="cls-35" d="M3332.88,492.07h810V318.66c-8.21-2.91-17-3.36-24.81,1.69-22.19,14.28-41.42,40.4-54.19,63.2-19.75,35.29-35.93,75.67-85,66.52-52.8-9.85-85.26-89.65-139-80.58-57.76,9.75-77.73,93.58-145.55,74.61-47.11-13.19-77.42-53.63-110.26-87.16-22.11-22.57-41.53-46.05-76.19-43.09C3447.18,319,3402.2,388.94,3369.5,433,3360.48,445.14,3340.7,472,3332.88,492.07Z"/><path class="cls-35" d="M3323.8,377c13.1-3.54,28.11,7.13,37.52,15.22,25.47,21.88,51.71,61.33,90,53.82,28-5.5,54.2-30.45,76.67-46.28,57.17-40.27,125.44-97.42,200.61-89.36,51.49,5.51,109.05,66.51,149.08,97.72,17.51,13.65,33,29.39,55.8,33.46,29.2,5.22,49.78-23.18,79-20.8,29.51,2.4,48.08,39.81,77.74,34.54,13.9-2.47,33.46-19.42,52.68-29.8v66.59H3323.8Z"/></g></g></svg>