<?xml version="1.0" encoding="UTF-8" standalone="no"?><!DOCTYPE svg PUBLIC "-//W3C//DTD SVG 1.1//EN" "http://www.w3.org/Graphics/SVG/1.1/DTD/svg11.dtd"><svg width="4000px" height="2500px" version="1.1" xmlns="http://www.w3.org/2000/svg" xmlns:xlink="http://www.w3.org/1999/xlink" xml:space="preserve" xmlns:serif="http://www.serif.com/" style="fill-rule:evenodd;clip-rule:evenodd;stroke-linejoin:round;stroke-miterlimit:2;"><g id="c99"></g><g transform="matrix(2.2689,0,0,2.2689,-4566.88,-350.987)"><g id="c63"><g><g transform="matrix(0.441052,0,0,0.441052,2013.55,154.631)"><rect x="111.817" y="218.725" width="3805.79" height="2107.56" style="fill:rgb(174,211,240);"/></g><path d="M2653.26,1180.64C2671.85,1153.11 2692.62,1127.09 2717.02,1105.09C2799.11,1031.1 2928.1,987.556 3033.44,963.198C3214.15,921.411 3555.3,1069.15 3741.42,976.944L3741.42,1180.64L2653.26,1180.64ZM3741.42,432.906C3689.22,383.326 3619.49,352.199 3531.56,329.386C3478.09,315.513 3426.07,305.577 3370.68,311.776C3291.85,320.599 3214.23,358.873 3142.3,390.031C2995.2,453.748 2812.57,516.877 2650.01,492.355C2565.89,479.667 2393.26,370.087 2303.04,251.1L3741.42,251.1L3741.42,432.906Z" style="fill:rgb(195,220,243);"/></g><g transform="matrix(0.441052,0,0,0.441052,2013.55,154.631)"><rect x="111.817" y="218.725" width="3805.79" height="2107.56" style="fill:none;"/><clipPath id="_clip1"><rect x="111.817" y="218.725" width="3805.79" height="2107.56"/></clipPath><g clip-path="url(#_clip1)"><g transform="matrix(2.22294e-16,1.20538,-1.48842,-5.73468e-17,1884.79,-1921.27)"><g transform="matrix(1,0,0,0.735448,0,146.031)"><rect x="1770.7" y="551.996" width="1785.02" height="13.393" style="fill:white;fill-opacity:0.45;"/></g><g transform="matrix(1,0,0,0.735448,0,237.418)"><rect x="1770.7" y="551.996" width="1785.02" height="13.393" style="fill:white;fill-opacity:0.45;"/></g><g transform="matrix(1,0,0,0.735448,0,328.805)"><rect x="1770.7" y="551.996" width="1785.02" height="13.393" style="fill:white;fill-opacity:0.45;"/></g><g transform="matrix(1,0,0,0.735448,0,420.192)"><rect x="1770.7" y="551.996" width="1785.02" height="13.393" style="fill:white;fill-opacity:0.45;"/></g><g transform="matrix(1,0,0,0.735448,0,511.579)"><rect x="1770.7" y="551.996" width="1785.02" height="13.393" style="fill:white;fill-opacity:0.45;"/></g><g transform="matrix(1,0,0,0.735448,0,602.966)"><rect x="1770.7" y="551.996" width="1785.02" height="13.393" style="fill:white;fill-opacity:0.45;"/></g><g transform="matrix(1,0,0,0.735448,0,694.353)"><rect x="1770.7" y="551.996" width="1785.02" height="13.393" style="fill:white;fill-opacity:0.45;"/></g><rect x="1888.91" y="451.812" width="9.909" height="763.69" style="fill:white;fill-opacity:0.55;"/><g transform="matrix(1,0,0,1,116.532,0)"><rect x="1888.91" y="451.812" width="9.909" height="763.69" style="fill:white;fill-opacity:0.55;"/></g><g transform="matrix(1,0,0,1,233.065,0)"><rect x="1888.91" y="451.812" width="9.909" height="763.69" style="fill:white;fill-opacity:0.55;"/></g><g transform="matrix(1,0,0,1,349.597,0)"><rect x="1888.91" y="451.812" width="9.909" height="763.69" style="fill:white;fill-opacity:0.55;"/></g><g transform="matrix(1,0,0,1,466.129,0)"><rect x="1888.91" y="451.812" width="9.909" height="763.69" style="fill:white;fill-opacity:0.55;"/></g><g transform="matrix(1,0,0,1,582.661,0)"><rect x="1888.91" y="451.812" width="9.909" height="763.69" style="fill:white;fill-opacity:0.55;"/></g><g transform="matrix(1,0,0,1,699.194,0)"><rect x="1888.91" y="451.812" width="9.909" height="763.69" style="fill:white;fill-opacity:0.55;"/></g><g transform="matrix(1,0,0,1,815.726,0)"><rect x="1888.91" y="451.812" width="9.909" height="763.69" style="fill:white;fill-opacity:0.55;"/></g><g transform="matrix(1,0,0,1,932.258,0)"><rect x="1888.91" y="451.812" width="9.909" height="763.69" style="fill:white;fill-opacity:0.55;"/></g><g transform="matrix(1,0,0,1,1048.79,0)"><rect x="1888.91" y="451.812" width="9.909" height="763.69" style="fill:white;fill-opacity:0.55;"/></g><g transform="matrix(1,0,0,1,1165.32,0)"><rect x="1888.91" y="451.812" width="9.909" height="763.69" style="fill:white;fill-opacity:0.55;"/></g><g transform="matrix(1,0,0,1,1281.85,0)"><rect x="1888.91" y="451.812" width="9.909" height="763.69" style="fill:white;fill-opacity:0.55;"/></g><g transform="matrix(1,0,0,1,1398.39,0)"><rect x="1888.91" y="451.812" width="9.909" height="763.69" style="fill:white;fill-opacity:0.55;"/></g><g transform="matrix(1,0,0,1,1514.92,0)"><rect x="1888.91" y="451.812" width="9.909" height="763.69" style="fill:white;fill-opacity:0.55;"/></g></g><g transform="matrix(2.22294e-16,1.20538,-1.48842,-5.73468e-17,2793.13,-1921.27)"><g transform="matrix(1,0,0,0.735448,0,146.031)"><rect x="1770.7" y="551.996" width="1785.02" height="13.393" style="fill:white;fill-opacity:0.45;"/></g><g transform="matrix(1,0,0,0.735448,0,237.418)"><rect x="1770.7" y="551.996" width="1785.02" height="13.393" style="fill:white;fill-opacity:0.45;"/></g><g transform="matrix(1,0,0,0.735448,0,328.805)"><rect x="1770.7" y="551.996" width="1785.02" height="13.393" style="fill:white;fill-opacity:0.45;"/></g><g transform="matrix(1,0,0,0.735448,0,420.192)"><rect x="1770.7" y="551.996" width="1785.02" height="13.393" style="fill:white;fill-opacity:0.45;"/></g><g transform="matrix(1,0,0,0.735448,0,511.579)"><rect x="1770.7" y="551.996" width="1785.02" height="13.393" style="fill:white;fill-opacity:0.45;"/></g><g transform="matrix(1,0,0,0.735448,0,602.966)"><rect x="1770.7" y="551.996" width="1785.02" height="13.393" style="fill:white;fill-opacity:0.45;"/></g><g transform="matrix(1,0,0,0.735448,0,694.353)"><rect x="1770.7" y="551.996" width="1785.02" height="13.393" style="fill:white;fill-opacity:0.45;"/></g><rect x="1888.91" y="451.812" width="9.909" height="763.69" style="fill:white;fill-opacity:0.55;"/><g transform="matrix(1,0,0,1,116.532,0)"><rect x="1888.91" y="451.812" width="9.909" height="763.69" style="fill:white;fill-opacity:0.55;"/></g><g transform="matrix(1,0,0,1,233.065,0)"><rect x="1888.91" y="451.812" width="9.909" height="763.69" style="fill:white;fill-opacity:0.55;"/></g><g transform="matrix(1,0,0,1,349.597,0)"><rect x="1888.91" y="451.812" width="9.909" height="763.69" style="fill:white;fill-opacity:0.55;"/></g><g transform="matrix(1,0,0,1,466.129,0)"><rect x="1888.91" y="451.812" width="9.909" height="763.69" style="fill:white;fill-opacity:0.55;"/></g><g transform="matrix(1,0,0,1,582.661,0)"><rect x="1888.91" y="451.812" width="9.909" height="763.69" style="fill:white;fill-opacity:0.55;"/></g><g transform="matrix(1,0,0,1,699.194,0)"><rect x="1888.91" y="451.812" width="9.909" height="763.69" style="fill:white;fill-opacity:0.55;"/></g><g transform="matrix(1,0,0,1,815.726,0)"><rect x="1888.91" y="451.812" width="9.909" height="763.69" style="fill:white;fill-opacity:0.55;"/></g><g transform="matrix(1,0,0,1,932.258,0)"><rect x="1888.91" y="451.812" width="9.909" height="763.69" style="fill:white;fill-opacity:0.55;"/></g><g transform="matrix(1,0,0,1,1048.79,0)"><rect x="1888.91" y="451.812" width="9.909" height="763.69" style="fill:white;fill-opacity:0.55;"/></g><g transform="matrix(1,0,0,1,1165.32,0)"><rect x="1888.91" y="451.812" width="9.909" height="763.69" style="fill:white;fill-opacity:0.55;"/></g><g transform="matrix(1,0,0,1,1281.85,0)"><rect x="1888.91" y="451.812" width="9.909" height="763.69" style="fill:white;fill-opacity:0.55;"/></g><g transform="matrix(1,0,0,1,1398.39,0)"><rect x="1888.91" y="451.812" width="9.909" height="763.69" style="fill:white;fill-opacity:0.55;"/></g><g transform="matrix(1,0,0,1,1514.92,0)"><rect x="1888.91" y="451.812" width="9.909" height="763.69" style="fill:white;fill-opacity:0.55;"/></g></g><g transform="matrix(2.34026,0,0,2.34026,-4727.27,-441.598)"><path d="M2768.91,267.868C2770.09,299.74 2772.16,334.344 2781.7,364.939C2787.66,384.033 2799.22,402.019 2803.86,421.218C2804.18,422.548 2801.15,420.607 2799.78,420.719C2797.51,420.905 2794.19,424.363 2791.74,423.06C2786.53,420.289 2784.55,409.976 2780.31,405.726C2779.61,405.028 2779.82,407.652 2779.77,408.637C2779.63,411.753 2779.71,414.887 2779.71,418.005C2779.71,418.737 2780.11,420.735 2778.99,419.094C2774.72,412.884 2772.68,405.765 2770.15,398.779C2769.24,396.262 2767.96,393.945 2766.73,391.578C2766.24,390.62 2765.18,387.672 2765.16,388.751C2764.84,403.622 2777.14,419.746 2752.01,415.095C2750.06,414.733 2745.55,415.902 2743.91,414.835C2737.76,410.823 2731.71,384.416 2730.34,377.385C2729.59,373.507 2728.62,369.698 2728.12,365.783C2727.89,364.018 2729.73,360.432 2727.95,360.445C2727.92,360.445 2727.97,366.798 2727.95,367.138C2727.77,369.219 2727.06,386.918 2724.54,383.851C2709.85,365.946 2709.66,334.21 2709.65,312.255C2709.65,301.01 2712.37,290.33 2713.58,279.231C2713.74,277.729 2713.48,282.996 2712.06,283.504C2710.96,283.894 2707.67,275.553 2705.06,275.681C2703.84,275.74 2704.3,283.927 2704.3,285.037C2704.29,295.686 2703.66,305.757 2702.15,316.275C2698.35,342.655 2686.93,370.801 2677.8,395.738C2675.67,401.547 2672.85,419.111 2666.58,422.307C2663.23,424.013 2653.71,413.621 2651.06,411.796C2638.28,403.018 2620.7,396.169 2605.64,391.973C2595.43,389.13 2585.81,384.817 2575.74,381.708C2571.93,380.532 2563.89,380.63 2561.29,377.093C2556.05,369.948 2567.33,342.723 2569.28,334.971C2579.14,295.688 2590.12,248.513 2618.96,217.913C2630.35,205.837 2648.27,216.021 2659.92,204.89" style="fill:rgb(42,68,116);"/><path d="M2333.27,1078.64C2332.27,1090.73 2324.99,1103.19 2321.75,1114.93C2313.79,1143.75 2311.12,1174.55 2311.1,1204.36C2311.09,1209.08 2307.75,1216.28 2309.3,1220.8C2309.52,1221.44 2310.16,1221.88 2310.72,1222.24C2321.36,1229.15 2395.93,1239.01 2409.77,1240.72C2497.33,1251.58 2586.95,1247.03 2674.71,1242C2684.56,1241.43 2744.48,1242.93 2751.83,1234.71C2759.4,1226.25 2760.14,1178.27 2762.13,1166.88C2767.87,1134.14 2772.13,1100.61 2779.42,1068.2C2784.62,1045.09 2794.13,1021.83 2794.37,997.886" style="fill:rgb(42,68,116);"/><path d="M2335.22,335.946C2311.19,372.316 2263.38,388.41 2244.09,430.013C2237.53,444.151 2225.48,517.109 2222.94,546.651C2221.71,560.968 2217.58,639.613 2220.9,646.208C2224.88,654.089 2245.9,656.904 2253.15,658.68C2281.11,665.522 2329.67,667.776 2343.15,697.786C2353.21,720.197 2357.03,745.878 2366.86,768.777C2391.76,826.772 2417.88,830.442 2395.71,896.592C2379.18,945.902 2344.92,981.836 2328.43,1036.56C2325.34,1046.84 2311.71,1075.61 2318.93,1086.63C2322.76,1092.48 2333.96,1095.54 2339.62,1099.96C2369.34,1123.17 2395.19,1145.86 2431.7,1157.92C2501.25,1180.91 2578.66,1180.24 2651.81,1175.85C2736.49,1170.77 2800.68,1177.14 2853.59,1105C2914.6,1021.82 2931.74,901.566 2879.96,821.557C2870.01,806.183 2844.72,773.822 2834.66,759.479C2824.75,745.372 2825.07,715.944 2817.95,700.534C2814.12,692.244 2806.12,686.304 2802.27,677.753C2779.73,627.717 2814.26,588.162 2804.03,535.682C2797.19,500.59 2761.8,480.347 2740.62,454.302C2728.92,439.907 2722.88,421.399 2709.51,408.247C2675.72,375.006 2599.41,348.654 2554.15,335.635" style="fill:rgb(236,97,152);"/><g transform="matrix(0.427002,0,0,0.427002,2019.26,188.758)"><path d="M682.027,407.633C745.495,434.14 805.955,474.083 869.94,497.513C1016.39,551.139 1130.86,538.48 1273.07,480.062C1307.81,465.79 1348.57,441.141 1386.95,441.064C1426.18,440.986 1464.85,462.454 1504.36,466.882C1522.49,468.915 1540.96,469.827 1559.58,470.097C1469.89,413.117 1337.8,368.468 1252.65,343.973L739.933,344.7C724.124,368.635 703.915,388.819 682.027,407.633Z" style="fill:url(#_Linear2);"/></g><g transform="matrix(0.427002,0,0,0.427002,2021.72,179.611)"><path d="M1889.27,1360.49C1829.51,1383.01 1745.31,1430.81 1683.78,1452.65C1575.24,1491.19 1437.42,1467.96 1377.95,1589.03C1344.12,1657.92 1414.46,1700.62 1468.87,1725.28C1507.25,1742.67 1550.89,1750.83 1590.77,1764.46C1673.48,1792.72 1870.69,1883.57 1956.89,1861.99C1990.83,1853.5 2027.96,1820.51 2040.48,1788.12C2062.37,1731.44 2043.95,1584.44 2016.75,1528.21C1994.56,1482.33 1978.15,1466.61 1945.72,1420.34C1935.47,1405.72 1907.96,1362.06 1889.27,1360.49Z" style="fill:url(#_Linear3);"/></g><g transform="matrix(0.427002,0,0,0.427002,2019.26,188.758)"><path d="M1040.42,675.637C1024.86,693.74 999.669,724.528 1002.08,750.204C1008.44,817.97 1293.76,861.832 1346.68,834.417C1437.59,787.327 1223.21,676.688 1189.51,666.97C1150.57,655.741 1104.44,653.914 1064.5,661.112" style="fill:url(#_Linear4);"/></g><g transform="matrix(0.427002,0,0,0.427002,2019.26,188.758)"><path d="M1385.42,458.809C1257.35,511.256 1237.13,559.614 1339.79,654.062C1373.01,684.631 1402.03,721.253 1446.31,737.521C1518.15,763.914 1599.51,771.511 1674.4,783.033C1710.23,788.545 1745.68,808.712 1783.14,798.693C1840.19,783.433 1732.57,687.745 1719.28,673.674C1626.84,575.858 1573.38,448.052 1420.14,448.048" style="fill:url(#_Linear5);"/></g><g transform="matrix(0.42581,-0.0318837,0.0318837,0.42581,1988.23,209.651)"><path d="M605.334,522.957C575.028,540.344 567.299,570.155 551.962,599.414C507.78,683.698 500.354,748.768 511.199,844.219C511.544,847.257 511.358,850.337 511.656,853.379C511.892,855.787 515.459,936.491 533.967,927.442C556.689,916.332 574.985,818.936 606.62,794.891C691.182,730.62 753.537,751.565 756.13,731.7C760.883,695.285 707.839,460.937 629.089,515.949" style="fill:url(#_Linear6);"/></g><path d="M2399.81,581.752C2399.81,581.752 2402.68,618.322 2404.69,604.247C2406.95,588.445 2409.07,570.789 2409.35,554.87C2409.36,553.902 2409.25,552.925 2409.37,551.964C2409.99,546.92 2410.71,541.796 2410.8,536.704C2410.81,536.338 2411.02,530.044 2411.35,530.149C2415.03,531.327 2412.16,571.046 2415.18,587.571C2424.97,641.198 2427.47,676.462 2495.12,678.347C2563.39,680.248 2585.11,646.391 2640.61,627.466C2657.92,621.566 2675.1,629.407 2692.78,626.19C2705.99,623.787 2719.08,619.557 2732.04,616.164C2736.11,615.1 2741,612.995 2744.62,610.916C2746.41,609.89 2750.16,606.347 2750.27,608.404C2750.5,612.905 2746.17,616.2 2742.73,618.098C2733.46,623.203 2722.31,623.753 2712.38,626.556C2700.48,629.912 2689.67,638.983 2679.5,645.697C2675.92,648.061 2654.13,655.15 2653.6,659.015C2652.59,666.271 2660.51,670.88 2665.31,674.868C2665.99,675.439 2670.62,678.552 2669.61,679.376C2657.43,689.271 2633.18,686.398 2618.66,686.398C2617.22,686.398 2595.99,686.147 2595.98,686.475C2595.47,695.862 2600.02,701.229 2593.92,711.283C2589.16,719.134 2583.36,729.122 2576.77,735.471C2571.11,740.933 2531.53,768.64 2540.74,778.266C2545.44,783.184 2556.61,780.364 2562.72,782.089C2573.34,785.086 2580.99,797.448 2593.95,795.373C2612.35,792.428 2642.38,751.968 2657.49,750.522C2659.56,750.323 2660.85,756.358 2661.14,757.664C2663.27,766.99 2669.97,747.548 2705.79,728.34C2721.2,720.079 2685.12,772.38 2701.71,765.631C2711.43,761.677 2725.29,765.681 2735.66,763.571C2752.95,760.051 2767.84,753.053 2784.35,748.349C2792.87,745.921 2818.43,732.117 2826.68,737.68C2827.36,740.897 2828.12,744.029 2829.02,746.977C2824.85,768.782 2775.69,781.394 2760.31,787.028C2701,808.757 2635.15,809.675 2574.98,829.816C2557.12,835.796 2521.72,845.9 2514.61,866.011C2495.67,919.549 2525.16,978.29 2561.09,1017.33C2567.43,1024.22 2580.33,1028.66 2588.32,1033.77C2615.95,1051.44 2640.85,1071.91 2669.01,1088.94C2684.01,1098.02 2758.75,1131.68 2757.84,1149.33C2757.62,1153.47 2741.31,1153.02 2739.28,1152.91C2717.05,1151.72 2691.9,1149.66 2670.23,1144.46C2567.83,1119.92 2550.47,1069.16 2479.52,1005.62C2464.98,992.592 2452.01,980.308 2435.2,970.008C2414.55,957.365 2392.41,955.965 2374.47,942.831C2382.65,928.111 2390.17,913.101 2395.71,896.592C2417.88,830.442 2391.76,826.772 2366.86,768.777C2363.27,760.412 2360.48,751.676 2357.9,742.859C2358.42,740.487 2358.99,738.122 2359.62,735.77C2367.72,705.516 2384.45,677.315 2392.23,647.091C2397.73,625.704 2398,603.797 2399.81,581.752Z" style="fill:url(#_Linear7);"/><path d="M2396.56,528.287C2394.71,527.526 2394.74,522.739 2394.33,520.981C2392.12,511.617 2389.3,502.463 2386.96,493.11C2380.55,467.543 2367.62,443.963 2355.06,421.083C2350.46,412.704 2339.59,399.605 2328.6,399.417C2325.43,399.363 2328.72,408.234 2329.1,409.218C2332.94,419.267 2336.6,430.103 2341.7,439.587C2347.11,449.646 2353.02,459.027 2357.6,469.554C2364.17,484.635 2372.95,498.38 2380.48,512.958" style="fill:rgb(231,58,127);"/><path d="M2337.83,1024.8C2342.54,1044.08 2398.27,1079.57 2414.05,1090.77C2499.14,1151.2 2560.27,1160.35 2661.29,1170.05C2686.69,1172.49 2733.39,1181.52 2758.05,1172.96" style="fill:url(#_Linear8);"/><path d="M2617.41,752.759C2611.71,752.992 2607.23,755.812 2601.64,756.583C2597.92,757.097 2594.22,757.304 2590.52,757.944C2586.67,758.61 2582.13,759.637 2578.55,761.283C2578.24,761.427 2574.71,763.059 2574.95,763.746C2575.27,764.641 2577.7,764.814 2578.4,764.882C2582.69,765.3 2587.06,765.598 2591.37,765.418C2599.73,765.071 2606.68,762.941 2614.64,760.797C2619.01,759.621 2623.54,759.355 2627.95,758.425C2632.34,757.497 2638.97,756.879 2642.05,753.044" style="fill:rgb(167,68,107);"/><path d="M2625.93,730.874C2621.3,730.881 2616.67,729.865 2611.93,729.865C2606.78,729.865 2601.6,729.668 2596.91,732.091C2596.47,732.316 2592.61,734.126 2593.44,735.11C2595.52,737.572 2602.93,737.471 2605.87,738.056C2611.26,739.129 2616.73,739.078 2622.21,738.824C2630.07,738.459 2635.85,738.488 2643.12,735.552" style="fill:rgb(167,68,107);"/><g transform="matrix(0.427002,0,0,0.427002,2019.26,188.758)"><path d="M1447.32,1285.48C1433.93,1290.87 1369.12,1338.15 1371.54,1349.45C1376.01,1370.33 1405.86,1370.06 1420.93,1376.58C1465.79,1395.99 1516.89,1423.32 1567.69,1420.19C1592.78,1418.64 1616.42,1406.19 1640.78,1401.33C1661.11,1397.28 1681.97,1398.51 1702.26,1395C1752.24,1386.37 1802.59,1360.45 1846.2,1335.54C1897.8,1306.07 1890.2,1242.15 1822.11,1266.66" style="fill:url(#_Linear9);"/></g><path d="M2223.7,638.682C2223.7,638.682 2225.78,752.959 2228.11,782.236C2232.14,832.904 2233.03,916.282 2251.55,963.285C2258.3,980.419 2303.51,1006.28 2318.74,1016.22C2387.16,1060.84 2464.59,1085.75 2535.88,1124.15C2610.08,1164.12 2706.26,1200.88 2791.66,1191.44C2805.87,1189.87 2810.4,1175.05 2819.85,1168.92C2832.65,1160.62 2849.39,1151.09 2857.24,1137.23C2861.72,1129.33 2876.51,1076.79 2868.92,1073.49C2864.47,1071.56 2853.99,1088.59 2849.37,1090.98C2845.28,1093.09 2849.25,1078.58 2844.68,1078C2827.8,1075.85 2801.28,1078.1 2784.08,1081.11C2758.63,1085.56 2728.37,1106.72 2701.57,1100.58C2686.42,1097.11 2672.68,1087.98 2658.46,1081.85C2587.29,1051.17 2531.37,1001.74 2469.56,956.83C2448.42,941.475 2424.49,929.597 2403.25,914.473C2367.19,888.803 2380.18,863.127 2384.63,818.776C2389.58,769.416 2402.01,639.019 2396.69,636.376C2372.11,624.146 2338.62,621.908 2302.41,624.921C2276.69,627.061 2223.7,638.682 2223.7,638.682Z" style="fill:rgb(255,199,135);"/><path d="M2861.37,1126.45C2859.72,1131.55 2858.23,1135.48 2857.24,1137.23C2849.39,1151.09 2832.65,1160.62 2819.85,1168.92C2810.4,1175.05 2805.87,1189.87 2791.66,1191.44C2706.26,1200.88 2610.08,1164.12 2535.88,1124.15C2464.59,1085.75 2387.16,1060.84 2318.74,1016.22C2303.51,1006.28 2258.3,980.419 2251.55,963.285C2233.03,916.282 2232.14,832.904 2228.11,782.236C2225.78,752.959 2223.7,638.682 2223.7,638.682C2223.7,638.682 2276.69,627.061 2302.41,624.921C2329.54,622.664 2355.14,623.354 2376.61,628.985C2345.58,630.853 2285.72,654.624 2277.76,674.525C2270.88,691.707 2273.18,712.789 2271.81,730.815C2268.97,768.319 2261.23,892.281 2278.67,925.206C2285.86,938.77 2302.18,932.747 2305.48,938.188C2314.39,952.908 2302.87,958.546 2320.4,973.698C2355.23,1003.81 2400.38,1028.52 2441.35,1049.36C2454.81,1056.21 2469.77,1060.4 2482.75,1068.2C2520.47,1090.89 2562.01,1111.03 2602.41,1128.54C2612.08,1132.74 2713.01,1165.08 2722.02,1163.71C2730.43,1162.43 2738.03,1156.87 2746.13,1155.72C2763.42,1153.25 2792.98,1157.58 2807.99,1147.81C2812.86,1144.64 2814.71,1138.35 2819.45,1135.3C2826.64,1130.67 2836.36,1128.35 2842.73,1122.41C2851.79,1113.97 2861.63,1107.11 2868.93,1097.44C2868.43,1099.95 2867.87,1102.53 2867.26,1105.12C2864.89,1109.08 2862.61,1112.38 2860.72,1114.37C2855.86,1119.48 2848.51,1121.82 2843.65,1126.65C2842.13,1128.16 2839.63,1129.66 2839.72,1132.14C2839.76,1133.32 2840.7,1134.88 2841.88,1135.23C2847.75,1137.01 2854.81,1132.23 2861.37,1126.45Z" style="fill:rgb(255,171,101);"/><path d="M2829.75,1096.39C2827.98,1096.43 2826.27,1097.91 2824.78,1098.71C2821.25,1100.59 2817.49,1102.4 2813.86,1104.06C2809.62,1105.99 2803.92,1106.39 2799.35,1107.43C2798.37,1107.66 2790.93,1110.35 2793.54,1112.6C2795.75,1114.51 2800.99,1111.73 2803.39,1111.41C2810.7,1110.42 2817.98,1107.24 2824.3,1103.48C2828.29,1101.1 2831.25,1097.63 2835.76,1096.14" style="fill:rgb(255,171,101);"/><path d="M2823.72,740.165C2827.89,746.296 2830.58,753.622 2834.52,759.944C2835.5,761.512 2840.39,767.257 2840.39,767.257C2840.39,767.257 2839.94,755.245 2839.94,754.128C2839.94,746.98 2841.19,739.915 2841.84,732.817C2842.86,721.793 2845.68,710.991 2844.71,699.738C2843.17,681.909 2832.36,665.215 2818.78,654.054C2808.8,645.863 2793.76,641.105 2781.72,637.229C2748,626.38 2716.65,620.884 2702.45,627.956C2694.12,632.102 2674.47,643.766 2655.51,655.004C2652.38,656.856 2648.01,659.541 2646.8,663.207C2645.05,668.478 2657.5,674.267 2661.26,675.589C2662.55,676.043 2669.65,675.508 2668.71,677.507C2668.25,678.473 2655.61,686.171 2654.08,687.3C2641.42,696.676 2625.78,704.816 2615.77,717.044C2613.41,719.932 2606.78,726.033 2608.82,730.308C2611.07,735.047 2618.14,734.309 2622.38,735.663C2622.74,735.778 2616.79,740.406 2616.25,740.764C2613.08,742.87 2604.74,750.415 2604.98,754.77C2605.17,758.227 2622.08,762.05 2625.56,761.443C2626.85,761.218 2631.96,759.675 2632.71,760.711C2635.13,764.019 2633.49,768.607 2637.49,771.525C2651.71,781.908 2669.35,764.86 2683.77,765.904C2685.46,766.026 2684.14,772.302 2684.57,773.549C2685.6,776.567 2687.7,776.783 2690.43,777.116C2702.36,778.576 2716.26,775.335 2727.69,772.77C2744.18,769.072 2764.85,766.407 2780.16,758.905C2789.34,754.407 2815.16,746.423 2823.72,740.165Z" style="fill:rgb(255,199,135);"/><path d="M2684.17,766.094C2688.19,764.101 2691.97,761.599 2696.09,759.871C2705.07,756.101 2714.32,752.799 2723.32,749.026C2730.11,746.179 2737.28,743.686 2743.88,740.537C2747.15,738.975 2750.94,737.002 2754.65,736.817C2755.99,736.75 2751.61,739.891 2751,740.144C2747.99,741.387 2745.18,743.445 2742.03,744.326C2738.58,745.29 2735.95,747.891 2732.74,749.377C2725.32,752.809 2718.16,755.949 2710.89,759.928C2710.01,760.413 2701.41,766.34 2702.68,767.698C2708.95,774.409 2725.48,767.282 2732.3,765.957C2735.1,765.413 2737.75,764.873 2740.53,764.162C2766.33,757.556 2788.06,738.554 2814.54,735.738C2819.05,735.257 2825.1,731.214 2829.71,732.8C2832.17,733.645 2834.21,739.313 2835.36,741.201C2836.93,743.79 2838.54,746.568 2840.1,749.449C2840,751.005 2839.94,752.564 2839.94,754.128C2839.94,755.245 2840.39,767.257 2840.39,767.257C2840.39,767.257 2835.5,761.512 2834.52,759.944C2830.58,753.622 2827.89,746.296 2823.72,740.165C2815.16,746.423 2789.34,754.407 2780.16,758.905C2764.85,766.407 2744.18,769.072 2727.69,772.77C2716.26,775.335 2702.36,778.576 2690.43,777.116C2687.7,776.783 2685.6,776.567 2684.57,773.549C2684.18,772.42 2685.23,767.167 2684.17,766.094ZM2619.79,760.955C2621.67,759.725 2623.52,758.409 2625.42,757.336C2630.88,754.253 2636.85,752.221 2642.62,749.831C2663.34,741.243 2685.31,735.532 2705.83,726.39C2713.85,722.817 2722.55,718.351 2731.01,716.078C2731.88,715.847 2738.68,713.222 2739.48,713.909C2740.79,715.035 2734.72,718.566 2734.28,718.803C2726.49,723.025 2718.15,726.021 2710.12,729.862C2685.48,741.654 2659.41,753.738 2633.04,761.207C2632.94,761.039 2632.83,760.874 2632.71,760.711C2631.96,759.675 2626.85,761.218 2625.56,761.443C2624.54,761.621 2622.37,761.418 2619.79,760.955ZM2610.22,732.181C2615.8,731.06 2621.45,728.913 2625.37,727.916C2631.66,726.316 2638.72,724.707 2644.66,722.051C2658.9,715.696 2670.86,704.425 2685.04,698.178C2688.2,696.786 2691.54,696.39 2694.77,695.255C2702.6,692.503 2710.71,690.223 2718.91,688.993C2719.69,688.877 2725.63,687.062 2726.37,687.707C2726.98,688.242 2722.02,690.041 2721.72,690.103C2718.85,690.714 2716.44,692.31 2713.72,693.363C2705.21,696.663 2696.7,700.286 2688.04,703.194C2675.9,707.273 2665.52,714.406 2654.32,720.303C2645.14,725.138 2635.16,728.502 2626.06,733.448C2624.77,734.152 2623.47,734.87 2622.16,735.594C2618.58,734.537 2613.18,734.809 2610.22,732.181ZM2661.21,675.57C2662.46,675.197 2663.71,674.812 2664.95,674.427C2670.66,672.652 2676.49,671.526 2682.17,669.548C2688.54,667.329 2694.17,663.084 2700.19,660.107C2705.06,657.7 2710.04,655.41 2714.87,652.964C2715.13,652.83 2719.41,651.187 2719.28,651.955C2718.94,654.054 2715.99,655.859 2714.44,657.023C2708.97,661.134 2702.42,663.974 2696.48,667.36C2684.97,673.919 2672.3,678.597 2659.82,683.602C2663.82,681.057 2668.43,678.083 2668.71,677.507C2669.65,675.508 2662.55,676.043 2661.26,675.589L2661.21,675.57Z" style="fill:rgb(255,171,101);"/><path d="M2579.35,308.838C2586.41,309.557 2599.31,318.805 2606.46,321.841C2623.23,328.967 2643.82,332.773 2661.95,331.211C2680.49,329.612 2685.37,307.259 2689.73,292.731C2691.09,288.181 2692.64,283.443 2693.5,278.786C2693.7,277.666 2695.23,275.636 2694,274.88C2691.86,273.558 2685.7,274.019 2683.31,273.718C2678.32,273.091 2673.13,271.38 2668.2,270.356C2641.03,264.707 2614.19,261.698 2586.46,261.698" style="fill:rgb(255,199,135);"/><path d="M2353.62,283.3C2352.17,296.215 2335.38,308.209 2327.23,316.93C2325.35,318.941 2317.68,326.045 2318.68,329.505C2320.05,334.302 2328.06,337.783 2331.45,341.083C2347.3,356.553 2368.33,367.112 2389.13,373.838C2440.39,390.405 2494.61,387.328 2545.53,372.859C2561.49,368.323 2580.82,366.654 2594.81,357.113C2594.85,357.088 2600.68,324.204 2601.17,321.777C2603.64,309.567 2605.91,297.318 2609.39,285.376C2609.82,283.909 2613.62,274.336 2612.54,273.008C2612.2,272.587 2575.29,263.876 2574.17,263.595C2564.38,261.142 2554.5,259.309 2544.45,258.323C2523.55,256.271 2500.78,255.657 2479.85,257.641C2446.99,260.758 2414.33,263.839 2381.41,266.349C2369.36,267.267 2355.96,271.734 2343.97,270.619" style="fill:rgb(54,87,149);"/><path d="M2498.14,256.551C2497.45,258.033 2496.76,259.507 2496.09,260.975C2487.66,279.365 2480.58,298.36 2472.13,316.769C2470.7,319.886 2461.67,334.754 2467.43,337.768C2473.34,340.856 2484.25,337.945 2490.85,337.956C2537.34,338.035 2536.38,327.794 2553.36,284.503C2556.45,276.602 2559.83,268.863 2563.29,261.144C2566.03,261.689 2568.76,262.289 2571.48,262.938C2561.54,288.889 2542.1,317.923 2541.02,338.522C2540.41,350.032 2560.56,343.08 2564.97,337.586C2575.9,323.939 2579.43,305.469 2585.82,289.629C2588.62,282.691 2591.4,275.52 2594.28,268.401C2603.47,270.616 2612.37,272.802 2612.54,273.008C2613.62,274.336 2609.82,283.909 2609.39,285.376C2605.91,297.318 2603.64,309.567 2601.17,321.777C2600.68,324.204 2594.85,357.088 2594.81,357.113C2580.82,366.654 2561.49,368.323 2545.53,372.859C2494.61,387.328 2440.39,390.405 2389.13,373.838C2368.33,367.112 2347.3,356.553 2331.45,341.083C2328.06,337.783 2320.05,334.302 2318.68,329.505C2317.68,326.045 2325.35,318.941 2327.23,316.93C2335.38,308.209 2352.17,296.215 2353.62,283.3L2343.97,270.619C2349.9,271.17 2356.16,270.359 2362.43,269.286C2363.02,274.18 2363.6,279.38 2366.21,283.647C2369.25,288.629 2380.08,271.847 2383.3,267.543C2383.42,267.389 2383.9,266.724 2384.39,266.119L2384.49,266.112L2385.9,266.002C2386.54,269.314 2385.41,279.772 2385.79,281.532C2386.99,287.049 2391.1,293.496 2395.13,285.688C2396.22,283.57 2397.46,281.547 2398.54,279.418C2401.07,274.415 2403.54,269.386 2406.05,264.368C2409.49,264.079 2412.92,263.785 2416.36,263.486C2413.1,271.546 2410.08,278.843 2409.22,282.126C2404.35,300.901 2417.51,296.441 2417.82,300.359C2418.41,307.806 2407.47,325.172 2420.23,324.812C2446.28,324.078 2461.62,280.451 2471.51,262.946C2472.43,261.332 2473.38,259.742 2474.35,258.163L2479.85,257.641C2480.89,257.543 2481.93,257.451 2482.97,257.366C2479.34,265.137 2475.08,272.62 2472.08,278.586C2467.91,286.883 2463.88,295.14 2460.24,303.7C2458.24,308.404 2456.46,313.2 2454.51,317.924C2452.83,322.017 2449.92,326.15 2449.11,330.539C2447.37,340.009 2462.26,320.142 2464.02,316.999C2474.92,297.495 2483.33,276.816 2493.06,256.733C2494.75,256.658 2496.44,256.597 2498.14,256.551Z" style="fill:rgb(42,68,116);"/></g><g transform="matrix(2.39437,0,0,2.09529,-5007.34,-259.376)"><path d="M3478.67,563.233L3034.25,530.282L3008.83,563.233L3008.83,1046.69L3478.67,1046.69L3478.67,563.233Z" style="fill-opacity:0.16;"/></g><g transform="matrix(2.39437,0,0,2.62801,-5007.34,-541.869)"><path d="M3478.67,563.233L3034.25,530.282L3008.83,563.233L3008.83,1046.69L3478.67,1046.69L3478.67,563.233Z" style="fill:url(#_Linear10);"/></g><g transform="matrix(2.26731,0,0,2.26731,-4446.32,-330.45)"><g><path d="M2952.39,955.277L2952.39,524.195L3439.2,524.195L3439.2,956.745L3025.26,956.745C3025.13,955.673 3025.15,954.221 3024.41,953.391C3024.05,952.988 3022.45,953.59 3021.69,952.951C3020.67,952.095 3020.18,949.661 3018.98,949.231C3018.7,949.131 3018.22,951.939 3017.62,951.943C3016.8,951.949 3015.79,947.412 3015.19,947.849C3014.04,948.686 3013.87,951.645 3013.73,952.889C3013.7,953.17 3013.84,954.269 3013.46,954.397C3011.21,955.161 3005.67,954.706 3003.43,953.894C3002.18,953.439 3000.99,952.269 2999.69,952.068C2997.56,951.737 2997.58,954.595 2995.57,954.183C2994.3,953.919 2993.72,952.076 2992.69,951.398C2991.51,950.623 2990.32,951.376 2989.56,951.072C2988.87,950.798 2988.46,949.087 2988.14,948.511C2987.76,947.82 2987.19,942.728 2985.93,943.041C2983.7,943.594 2982.7,948.319 2982.1,950.114C2981.92,950.642 2981.41,952.726 2980.72,952.756C2980.23,952.777 2979.6,950.943 2979.52,950.693C2979.1,949.248 2978.24,944.585 2976.44,944.045C2976.03,943.922 2975.55,944.944 2975.45,945.137C2974.73,946.466 2974.32,949.347 2973.14,950.245C2972.47,950.75 2971.55,947.192 2970.85,947.713C2969.78,948.51 2970.49,950.832 2969.55,951.54C2969.54,951.547 2969.3,950.742 2969.29,950.709C2969.09,950.112 2968.82,948.975 2968.18,948.725C2968.05,948.674 2967.05,953.401 2966.86,953.662C2966.76,953.79 2965.17,951.239 2965.11,951.144C2964.4,949.899 2961.99,944.652 2960.37,944.668C2960.03,944.671 2959.72,946.235 2959.67,946.402C2959.13,948.137 2958.68,949.893 2958.15,951.632C2958.09,951.808 2957.78,953.095 2957.6,953.178C2957.25,953.342 2957.32,952.449 2957.17,952.084C2956.82,951.194 2956.15,948.462 2955.33,948.019C2955.06,947.872 2955.09,948.59 2954.99,948.882C2954.73,949.634 2954.44,950.342 2954.14,951.078C2953.64,952.335 2952.95,953.785 2952.39,955.277Z" style="fill:rgb(149,215,205);"/><rect x="2952.39" y="524.195" width="486.807" height="39.747" style="fill:rgb(43,109,99);"/><path d="M2963.18,578.08C2962.74,618.11 2962.78,658.098 2961.7,698.112C2960.72,734.414 2958.05,770.398 2958.19,806.737C2958.29,832.931 2959.88,859.489 2962.23,885.579C2962.99,893.972 2963.59,902.287 2964.03,910.689C2964.18,913.513 2964.59,916.348 2964.84,919.162C2964.84,919.205 2964.95,922.712 2965.11,922.669C2965.68,922.516 2964.74,916.825 2964.69,916.525C2963.49,909.663 2962.89,902.757 2962.58,895.797C2961.79,877.591 2960.61,859.447 2961.12,841.193C2961.82,815.767 2964.3,790.4 2965.17,764.979C2966.1,737.637 2966.05,710.272 2966.95,682.928C2968.25,643.717 2971.96,604.121 2967.32,564.955" style="fill:rgb(62,165,149);"/><path d="M2975.43,734.481C2974.39,742.882 2975.18,751.727 2974.95,760.184C2974.43,779.511 2974.15,798.805 2974.15,818.145C2974.15,834.819 2975.24,851.466 2976.25,868.094C2977.14,882.69 2978.38,897.543 2978.42,912.164C2978.43,917.196 2978.88,921.911 2979.64,926.868C2979.9,928.597 2979.97,929.993 2980.8,931.484C2981.1,932.029 2980.84,933.892 2981.11,933.329C2983.1,929.148 2980.84,921.133 2980.61,916.703C2980.03,905.526 2979.67,894.25 2980.03,883.05C2980.52,867.555 2982.18,852.068 2982.92,836.573C2984.46,804.416 2981.19,772.062 2976.1,740.412" style="fill:rgb(62,165,149);"/><path d="M2990.97,933.15C2992.76,923.598 2990.76,913.11 2991.47,903.349C2991.75,899.597 2992.09,895.866 2992.52,892.129C2992.66,890.966 2992.89,889.816 2993.03,888.653C2993.12,887.852 2993,885.509 2993.32,886.252C2994.61,889.333 2993.96,893.895 2994.43,897.207C2995.71,906.235 2994.61,920.27 2999.57,928.503C3000.28,929.668 3000.03,925.811 3000.05,924.451C3000.09,920.979 3000.06,917.506 3000.06,914.034C3000.06,903.09 2999.35,892.114 3000.03,881.18C3002,849.542 3006.38,817.823 3006.47,786.093C3006.57,749.556 3006.79,713.562 3003.84,677.114C3002.89,665.375 3002.05,653.601 3001.19,641.855C3000.92,638.129 3001.12,634.365 3000.86,630.64C3000.78,629.421 3000.73,628.117 3000.6,626.901C3000.51,626.1 3000.01,623.759 3000.34,624.497C3001.52,627.187 3000.86,631.273 3000.86,634.113C3000.86,640.359 3000.76,646.213 3002.34,652.291C3011.54,687.932 3011.43,725.503 3009.45,762.056C3008.72,775.665 3010.65,788.876 3011.23,802.388C3011.91,818.381 3009.95,834.527 3011.19,850.471C3013,873.716 3011.06,897.103 3008.69,920.184C3007.84,928.437 3009.77,940.469 3006.13,948.26C3005.1,950.451 3001.77,943.453 3000.56,943.073C2998.13,942.311 2997.95,950.072 2995.49,945.227C2995.22,944.692 2994.96,944.154 2994.71,943.615C2994.36,942.871 2994.48,941.793 2994.46,941.011" style="fill:rgb(62,165,149);"/><path d="M2996.98,591.047C2996.63,587.964 2998.41,595.614 2998.44,596.719C2998.52,601.152 2998.46,605.678 2998.9,610.081C2998.92,610.292 2999.23,614.425 2999.89,614.309C3001.77,613.975 3002.46,605.855 3002.63,604.455C3003.8,594.805 3004.33,583.512 2998.25,575.771" style="fill:rgb(62,165,149);"/><g transform="matrix(0.849496,0,0,1,517.614,0)"><rect x="2952.39" y="524.195" width="486.807" height="432.551" style="fill:rgb(213,239,235);"/></g><g transform="matrix(0.849496,0,0,0.97137,517.614,15.0079)"><path d="M3439.2,524.195L2952.39,524.195C2951.79,670.112 2964.31,814.809 3006.49,956.745L3439.2,956.745L3439.2,524.195Z" style="fill-opacity:0.24;"/></g><g transform="matrix(0.849496,0,0,0.911972,517.614,84.2208)"><path d="M3439.2,524.195L2952.39,524.195C2953.16,667.293 2983.02,802.629 3061.38,925.024L3548.18,925.024C3472.2,804.905 3432.65,672.391 3439.2,524.195Z" style="fill:rgb(213,239,235);"/></g><g transform="matrix(0.849496,0,0,0.0909479,517.614,476.52)"><rect x="2952.39" y="524.195" width="486.807" height="432.551" style="fill:rgb(59,151,137);"/></g></g><g transform="matrix(1,0,0,1,101.301,-5.39915)"><path d="M3131.45,607.997C3131.45,603.493 3127.8,599.836 3123.29,599.836L3049.11,599.836C3044.6,599.836 3040.95,603.493 3040.95,607.997C3040.95,612.501 3044.6,616.158 3049.11,616.158L3123.29,616.158C3127.8,616.158 3131.45,612.501 3131.45,607.997Z" style="fill:rgb(62,165,149);"/></g><g transform="matrix(1,0,0,1,211.31,-5.39915)"><path d="M3131.45,607.997C3131.45,603.493 3127.8,599.836 3123.29,599.836L3049.11,599.836C3044.6,599.836 3040.95,603.493 3040.95,607.997C3040.95,612.501 3044.6,616.158 3049.11,616.158L3123.29,616.158C3127.8,616.158 3131.45,612.501 3131.45,607.997Z" style="fill:rgb(62,165,149);"/></g><g transform="matrix(1,0,0,1,12.401,-5.39915)"><ellipse cx="3082.37" cy="610.148" rx="24.535" ry="8.827" style="fill:rgb(62,165,149);"/></g><g transform="matrix(80.3643,-1.28161,1.28161,80.3643,-256946,-61140.4)"><path d="M3223.03,821.183L3223.03,820.873C3223.17,820.867 3223.27,820.857 3223.33,820.845C3223.42,820.824 3223.5,820.784 3223.55,820.723C3223.59,820.682 3223.62,820.626 3223.64,820.557C3223.65,820.515 3223.66,820.485 3223.66,820.464L3224.04,820.464L3224.04,822.782L3223.57,822.782L3223.57,821.183L3223.03,821.183Z" style="fill:rgb(10,96,83);fill-rule:nonzero;"/><path d="M3225.16,822.162C3225.18,822.261 3225.21,822.337 3225.26,822.391C3225.32,822.445 3225.39,822.472 3225.49,822.472C3225.6,822.472 3225.69,822.432 3225.75,822.352C3225.81,822.273 3225.84,822.173 3225.84,822.053C3225.84,821.935 3225.81,821.835 3225.75,821.753C3225.7,821.672 3225.61,821.631 3225.49,821.631C3225.44,821.631 3225.39,821.638 3225.35,821.652C3225.28,821.677 3225.22,821.725 3225.19,821.794L3224.78,821.775L3224.94,820.495L3226.22,820.495L3226.22,820.881L3225.27,820.881L3225.19,821.388C3225.26,821.342 3225.31,821.312 3225.35,821.297C3225.42,821.272 3225.5,821.26 3225.59,821.26C3225.79,821.26 3225.95,821.325 3226.1,821.454C3226.24,821.582 3226.31,821.77 3226.31,822.016C3226.31,822.23 3226.24,822.421 3226.1,822.59C3225.97,822.758 3225.76,822.842 3225.49,822.842C3225.27,822.842 3225.09,822.783 3224.94,822.665C3224.8,822.547 3224.72,822.379 3224.71,822.162L3225.16,822.162Z" style="fill:rgb(10,96,83);fill-rule:nonzero;"/></g></g><g transform="matrix(2.26731,0,0,2.26731,-4464.17,-393.386)"><g transform="matrix(1,0,0,1,-7.42106,0)"><path d="M3499.59,366.75C3499.59,362.179 3495.88,358.474 3491.31,358.474C3447.55,358.474 3243.43,358.474 3199.66,358.474C3197.47,358.474 3195.36,359.346 3193.81,360.898C3192.26,362.45 3191.39,364.555 3191.39,366.75C3191.39,392.547 3191.39,472.078 3191.39,510.73C3191.39,514.156 3193.49,517.227 3196.69,518.456C3199.89,519.685 3203.51,518.817 3205.81,516.274C3217.41,503.411 3232.72,486.439 3238.62,479.897C3240.19,478.158 3242.42,477.165 3244.77,477.165C3272.65,477.165 3450.62,477.165 3491.31,477.165C3495.88,477.165 3499.59,473.459 3499.59,468.888C3499.59,447.131 3499.59,388.507 3499.59,366.75Z" style="fill:rgb(186,154,24);"/></g><path d="M3585.04,366.75C3585.04,362.179 3581.34,358.474 3576.76,358.474C3533,358.474 3243.43,358.474 3199.66,358.474C3197.47,358.474 3195.36,359.346 3193.81,360.898C3192.26,362.45 3191.39,364.555 3191.39,366.75C3191.39,392.547 3191.39,472.078 3191.39,510.73C3191.39,514.156 3193.49,517.227 3196.69,518.456C3199.89,519.685 3203.51,518.817 3205.81,516.274C3217.41,503.411 3232.72,486.439 3238.62,479.897C3240.19,478.158 3242.42,477.165 3244.77,477.165C3272.65,477.165 3536.08,477.165 3576.76,477.165C3581.34,477.165 3585.04,473.459 3585.04,468.888C3585.04,447.131 3585.04,388.507 3585.04,366.75Z" style="fill:rgb(235,208,99);"/><g transform="matrix(0.436274,0,0,0.436274,3122.47,27.9393)"><path d="M318.551,974.143L1011.12,974.143L1011.12,826.352C1004.1,823.876 996.622,823.491 989.913,827.793C970.936,839.964 954.499,862.22 943.581,881.658C926.69,911.731 912.856,946.149 870.937,938.351C825.793,929.954 798.044,861.941 752.101,869.673C702.72,877.983 685.641,949.426 627.662,933.256C587.377,922.02 561.463,887.553 533.384,858.976C514.483,839.74 497.88,819.727 468.248,822.25C416.278,826.675 377.818,886.253 349.861,923.797C342.153,934.149 325.242,957.067 318.551,974.143Z" style="fill:rgb(19,79,123);fill-opacity:0.17;"/></g><g transform="matrix(0.436274,0,0,0.436274,3122.47,27.9393)"><path d="M310.793,876.042C321.987,873.022 334.822,882.119 342.868,889.009C364.644,907.654 387.084,941.283 419.816,934.876C443.751,930.192 466.161,908.927 485.373,895.435C534.247,861.112 592.624,812.412 656.893,819.276C700.914,823.978 750.129,875.963 784.356,902.56C799.327,914.194 812.599,927.612 832.066,931.081C857.031,935.53 874.627,911.319 899.613,913.349C924.843,915.398 940.723,947.283 966.08,942.787C977.965,940.68 994.692,926.235 1011.12,917.389L1011.12,974.143L310.793,974.143L310.793,876.042Z" style="fill:rgb(19,79,123);fill-opacity:0.17;"/></g></g></g></g></g></g><defs><linearGradient id="_Linear2" x1="0" y1="0" x2="1" y2="0" gradientUnits="userSpaceOnUse" gradientTransform="matrix(-143.295,-581.693,581.693,-143.295,1246.58,558.709)"><stop offset="0" style="stop-color:black;stop-opacity:0"/><stop offset="1" style="stop-color:black;stop-opacity:1"/></linearGradient><linearGradient id="_Linear3" x1="0" y1="0" x2="1" y2="0" gradientUnits="userSpaceOnUse" gradientTransform="matrix(519.013,-1314.43,1314.43,519.013,1758,1841.37)"><stop offset="0" style="stop-color:white;stop-opacity:0"/><stop offset="1" style="stop-color:white;stop-opacity:1"/></linearGradient><linearGradient id="_Linear4" x1="0" y1="0" x2="1" y2="0" gradientUnits="userSpaceOnUse" gradientTransform="matrix(124.023,-687.308,687.308,124.023,1189.26,927.166)"><stop offset="0" style="stop-color:white;stop-opacity:0"/><stop offset="1" style="stop-color:white;stop-opacity:1"/></linearGradient><linearGradient id="_Linear5" x1="0" y1="0" x2="1" y2="0" gradientUnits="userSpaceOnUse" gradientTransform="matrix(543.525,-735.276,735.276,543.525,1433.02,759.574)"><stop offset="0" style="stop-color:white;stop-opacity:0"/><stop offset="1" style="stop-color:white;stop-opacity:1"/></linearGradient><linearGradient id="_Linear6" x1="0" y1="0" x2="1" y2="0.880184" gradientUnits="userSpaceOnUse" gradientTransform="matrix(258.281,-874.943,349.4,646.768,582.18,878.326)"><stop offset="0" style="stop-color:white;stop-opacity:0"/><stop offset="1" style="stop-color:white;stop-opacity:1"/></linearGradient><linearGradient id="_Linear7" x1="0" y1="0" x2="1" y2="0" gradientUnits="userSpaceOnUse" gradientTransform="matrix(-623.169,-121.147,121.147,-623.169,2651.79,908.602)"><stop offset="0" style="stop-color:black;stop-opacity:0"/><stop offset="1" style="stop-color:black;stop-opacity:1"/></linearGradient><linearGradient id="_Linear8" x1="0" y1="0" x2="1" y2="0" gradientUnits="userSpaceOnUse" gradientTransform="matrix(420.223,0,0,151.773,2337.83,1100.69)"><stop offset="0" style="stop-color:black;stop-opacity:0"/><stop offset="1" style="stop-color:black;stop-opacity:1"/></linearGradient><linearGradient id="_Linear9" x1="0" y1="0" x2="1" y2="0" gradientUnits="userSpaceOnUse" gradientTransform="matrix(-68.7799,-481.005,481.005,-68.7799,1512.68,1454.46)"><stop offset="0" style="stop-color:black;stop-opacity:0"/><stop offset="1" style="stop-color:black;stop-opacity:1"/></linearGradient><linearGradient id="_Linear10" x1="0" y1="0" x2="1" y2="0" gradientUnits="userSpaceOnUse" gradientTransform="matrix(23.8483,-993.63,1090.59,21.7281,3311.12,1188.82)"><stop offset="0" style="stop-color:black;stop-opacity:0"/><stop offset="0.49" style="stop-color:black;stop-opacity:0.26"/><stop offset="1" style="stop-color:black;stop-opacity:1"/></linearGradient></defs></svg>